<?xml version="1.0" standalone="no"?>
<!DOCTYPE svg PUBLIC "-//W3C//DTD SVG 20010904//EN"
 "http://www.w3.org/TR/2001/REC-SVG-20010904/DTD/svg10.dtd">
<svg version="1.0" xmlns="http://www.w3.org/2000/svg"
 width="512.000000pt" height="512.000000pt" viewBox="0 0 512.000000 512.000000"
 preserveAspectRatio="xMidYMid meet">

<g transform="translate(0.000000,512.000000) scale(0.100000,-0.100000)"
fill="#000000" stroke="none">
<path d="M1039 4916 c-86 -31 -148 -91 -169 -167 -6 -19 -10 -132 -10 -251 l0
-217 -337 -3 c-307 -3 -341 -5 -373 -22 -49 -26 -98 -74 -123 -121 l-22 -40
-3 -1723 c-2 -1903 -6 -1790 61 -1916 67 -127 208 -229 351 -255 41 -8 491
-11 1413 -11 l1354 0 24 25 c32 31 33 74 2 103 l-23 22 -1157 0 c-636 0 -1157
2 -1157 5 0 3 16 26 37 52 20 27 45 67 55 91 47 105 48 122 48 1078 0 897 0
901 -21 928 -26 33 -79 36 -109 6 -20 -20 -20 -33 -20 -922 0 -716 -3 -915
-14 -959 -26 -111 -98 -198 -205 -247 -45 -22 -71 -26 -136 -27 -69 0 -89 5
-145 31 -78 37 -141 99 -178 174 l-27 55 -3 1716 c-1 1114 1 1726 8 1743 5 14
24 35 42 46 31 19 51 20 346 20 l312 0 0 -714 c0 -666 1 -715 18 -735 26 -33
79 -31 109 3 l23 27 0 1001 0 1000 34 34 34 34 1916 -2 1916 -3 27 -28 28 -27
0 -2058 0 -2057 -27 -55 c-37 -75 -100 -137 -178 -174 l-65 -31 -648 -5 -649
-5 -20 -25 c-14 -17 -18 -33 -14 -54 13 -64 -23 -61 654 -64 417 -2 638 1 682
8 147 25 289 127 357 256 67 127 63 -21 61 2241 -3 1975 -4 2049 -22 2083 -26
49 -74 98 -121 123 l-40 22 -1930 2 c-1561 2 -1937 0 -1966 -11z"/>
<path d="M1500 4538 l-25 -14 -3 -421 -2 -422 21 -12 c31 -16 99 -13 118 6 13
13 17 54 21 260 l5 244 135 -252 c129 -239 138 -253 172 -264 40 -13 95 -3
110 19 4 7 8 198 8 424 0 349 -2 413 -15 424 -22 18 -87 22 -115 8 l-25 -14
-5 -252 -5 -252 -124 240 c-69 132 -135 249 -147 261 -27 26 -91 34 -124 17z"/>
<path d="M2232 4534 l-22 -15 0 -418 c0 -377 2 -420 17 -432 13 -11 68 -14
260 -14 231 0 245 1 259 19 16 23 18 69 4 97 -10 18 -23 19 -195 19 l-185 0 0
125 0 125 99 0 c109 0 131 10 131 56 0 58 -11 64 -125 64 l-105 0 0 125 0 125
178 0 c161 0 181 2 195 18 23 25 21 78 -3 102 -19 19 -33 20 -253 20 -194 0
-236 -3 -255 -16z"/>
<path d="M2891 4532 c-19 -9 -39 -24 -44 -32 -11 -19 233 -804 257 -828 9 -9
40 -17 73 -20 93 -6 102 5 148 197 21 89 42 161 47 161 4 0 8 -6 8 -12 0 -7
16 -82 36 -166 33 -142 38 -154 65 -167 33 -18 98 -19 133 -4 13 7 29 23 35
38 6 14 65 197 131 406 133 425 132 412 50 436 -74 22 -75 22 -181 -345 -52
-179 -96 -326 -99 -326 -3 0 -28 93 -55 207 -31 132 -56 214 -67 225 -24 24
-99 24 -120 1 -8 -10 -39 -115 -68 -233 -30 -118 -55 -210 -57 -205 -1 6 -45
156 -97 335 -108 372 -111 376 -195 332z"/>
<path d="M4132 4536 c-110 -36 -172 -119 -172 -231 0 -118 47 -173 215 -255
141 -69 165 -91 172 -154 5 -38 2 -48 -20 -70 -44 -44 -139 -55 -202 -23 -11
5 -38 25 -59 44 -48 40 -78 42 -105 7 -77 -98 57 -206 254 -207 112 0 177 25
234 90 70 78 79 203 25 304 -34 61 -78 93 -219 159 -56 27 -110 59 -119 72
-24 34 -20 80 9 108 38 36 145 41 219 10 69 -27 86 -24 111 23 18 34 19 39 5
64 -26 47 -81 66 -200 70 -71 2 -119 -2 -148 -11z"/>
<path d="M1562 3299 c-28 -14 -51 -36 -68 -64 l-24 -43 2 -573 3 -574 23 -33
c13 -18 41 -41 62 -52 38 -19 61 -20 594 -20 369 0 564 4 583 11 40 15 73 48
94 94 17 37 19 76 19 583 0 466 -2 548 -15 579 -20 48 -41 71 -87 94 -35 18
-67 19 -590 19 -543 0 -554 0 -596 -21z m1133 -669 l0 -535 -535 0 -535 0 -3
525 c-1 289 0 531 3 538 3 10 116 12 537 10 l533 -3 0 -535z"/>
<path d="M3072 3297 c-31 -33 -29 -80 4 -106 26 -21 33 -21 746 -21 l719 0 24
25 c14 13 25 36 25 50 0 14 -11 37 -25 50 l-24 25 -724 0 -724 0 -21 -23z"/>
<path d="M3070 2680 c-25 -25 -26 -71 -1 -101 l19 -24 704 -3 c466 -2 715 0
739 7 23 7 40 20 47 36 17 36 15 48 -9 79 l-20 26 -730 0 c-716 0 -729 0 -749
-20z"/>
<path d="M3076 2069 c-33 -26 -36 -79 -6 -109 20 -20 33 -20 749 -20 l730 0
20 26 c34 43 26 86 -20 109 -24 13 -134 15 -737 15 -702 0 -710 0 -736 -21z"/>
<path d="M1492 1450 c-32 -30 -30 -82 4 -109 l27 -21 1509 0 1509 0 24 25 c32
31 32 69 0 100 l-24 25 -1514 0 c-1509 0 -1513 0 -1535 -20z"/>
<path d="M1490 830 c-27 -27 -26 -81 1 -106 21 -18 62 -19 1523 -22 1058 -1
1509 1 1527 9 25 10 49 46 49 73 0 7 -9 25 -21 40 l-20 26 -1520 0 c-1506 0
-1519 0 -1539 -20z"/>
</g>
</svg>
